<?xml version="1.0" encoding="UTF-8"?>
<svg version="1.1" xmlns="http://www.w3.org/2000/svg" width="643" height="643">
<path d="M0 0 C212.19 0 424.38 0 643 0 C643 212.19 643 424.38 643 643 C430.81 643 218.62 643 0 643 C0 430.81 0 218.62 0 0 Z " fill="#FDFDFD" transform="translate(0,0)"/>
<path d="M0 0 C0 53.46 0 106.92 0 162 C5.28 158.04 10.56 154.08 16 150 C39.54538368 136.39600054 64.08255775 129.79595355 91.3125 129.8125 C93.16524536 129.81262085 93.16524536 129.81262085 95.05541992 129.81274414 C105.14908282 129.87505475 115.00910991 130.61321992 125 132 C126.80017578 132.21849609 126.80017578 132.21849609 128.63671875 132.44140625 C131.94959406 132.99162828 134.83853688 133.88346775 138 135 C139.15113281 135.32097656 140.30226562 135.64195312 141.48828125 135.97265625 C167.58447087 143.40967045 191.20780513 160.09121312 206 183 C206.54503174 183.84377197 206.54503174 183.84377197 207.10107422 184.70458984 C212.08724113 192.57401575 215.87660761 200.61507305 218.875 209.4375 C219.14900635 210.23397949 219.4230127 211.03045898 219.70532227 211.85107422 C224.33663516 226.31548488 225.44157749 240.65841174 225.34057617 255.72875977 C225.33972739 257.53419989 225.34020992 259.33964104 225.34190369 261.14508057 C225.34275529 265.98905429 225.32526677 270.83279964 225.30418181 275.67672086 C225.28527387 280.76021203 225.28365355 285.84370993 225.28010559 290.92723083 C225.27082622 300.52798325 225.24626877 310.1286317 225.21605712 319.72933859 C225.1823843 330.67025965 225.16599489 341.61118599 225.15097082 352.55214608 C225.11971499 375.03483475 225.06475504 397.51738113 225 420 C201.9 420 178.8 420 155 420 C154.9906543 415.02486328 154.98130859 410.04972656 154.97167969 404.92382812 C154.9378513 388.45137935 154.88246859 371.97905449 154.81609726 355.50670624 C154.77639479 345.52351128 154.74395782 335.54039415 154.72900391 325.55712891 C154.71594162 316.84930284 154.68886105 308.14164866 154.64538693 299.43391943 C154.62287448 294.82902921 154.60708313 290.22435015 154.60811615 285.61940002 C154.60886886 281.27232617 154.59067654 276.92571731 154.55883217 272.57876396 C154.55041324 270.99552474 154.54852776 269.41223286 154.55419731 267.8289814 C154.60059078 252.86328476 152.48844787 238.7425651 144 226 C143.43667969 225.14921875 142.87335938 224.2984375 142.29296875 223.421875 C131.63860422 208.79735779 114.23942224 201.50557368 96.84765625 198.4453125 C71.11643727 195.4672831 47.0193948 200.82169996 26.5234375 217.01538086 C12.90245732 228.37974451 3.55928144 244.38460821 1 262 C0.90317723 264.23846715 0.85424877 266.47929264 0.84178162 268.71981812 C0.83684364 269.37014594 0.83190566 270.02047376 0.82681805 270.69050848 C0.8115402 272.85535611 0.803109 275.02017431 0.79467773 277.18505859 C0.78509156 278.74257666 0.77508104 280.30009215 0.76467896 281.85760498 C0.73770396 286.07610698 0.71665442 290.29462007 0.69667697 294.51316023 C0.67477161 298.92543008 0.64740523 303.337666 0.62062073 307.74990845 C0.57075527 316.10077513 0.52579369 324.45166071 0.48259836 332.80256426 C0.42392879 344.09021439 0.35767501 355.37781984 0.29184818 366.66543007 C0.18836968 384.44358992 0.0950166 402.22178825 0 420 C-23.43 420 -46.86 420 -71 420 C-71.11034946 375.35328936 -71.20262314 330.70670796 -71.25532665 286.05989985 C-71.26157974 280.78187635 -71.26805139 275.50385314 -71.2746582 270.22583008 C-71.27596976 269.17512696 -71.27728131 268.12442385 -71.2786326 267.04188124 C-71.30035416 250.05740702 -71.33975769 233.07301792 -71.38576398 216.0885941 C-71.43261922 198.64450624 -71.46031452 181.20046278 -71.47044247 163.75631458 C-71.47728286 153.00334553 -71.49884106 142.25061716 -71.53958233 131.49772225 C-71.56613279 124.1113184 -71.57397332 116.7250379 -71.56750689 109.33858987 C-71.56432302 105.0850366 -71.56899781 100.83190212 -71.59602737 96.57842445 C-71.77367342 67.13997662 -69.05282828 43.87265738 -47.73046875 21.6328125 C-35.11640183 9.54171685 -17.72989845 0 0 0 Z " fill="#0E0E0D" transform="translate(87,73)"/>
<path d="M0 0 C1.95431816 0.02803477 3.90874295 0.04935938 5.86320496 0.0643158 C10.96737194 0.12115074 16.06496687 0.26805182 21.16656494 0.43487549 C26.38813361 0.58931151 31.61078228 0.65703559 36.83398438 0.73242188 C47.05234157 0.89250753 57.26585543 1.1479292 67.48046875 1.46484375 C65.862297 4.87314312 64.00280911 7.26015133 61.41796875 10.02734375 C58.16939383 13.56652601 55.05578659 17.16044543 52.04296875 20.90234375 C48.181052 25.67768777 44.10372651 30.2015206 39.9453125 34.71875 C37.55339578 37.38359541 35.28791991 40.113162 33.04296875 42.90234375 C29.3847586 47.43800818 25.5330391 51.72185545 21.56665039 55.98413086 C18.57619875 59.2167835 15.74267868 62.53181141 12.98046875 65.96484375 C9.78114937 69.94114069 6.45459835 73.73150448 2.98046875 77.46484375 C-1.32630276 82.09383994 -5.36354561 86.87951335 -9.33203125 91.8046875 C-12.91245117 96.15873386 -16.72852228 100.29473389 -20.51953125 104.46484375 C-27.1238867 111.87243162 -33.48634584 119.49042015 -39.87988281 127.07958984 C-45.80206344 134.10865938 -51.78206511 141.08191068 -57.81933594 148.01245117 C-60.99765886 151.67263969 -64.10258804 155.37707495 -67.14453125 159.15234375 C-70.73747638 163.59417152 -74.54276942 167.8026994 -78.43188477 171.98291016 C-82.23422773 176.093084 -85.7624978 180.3879234 -89.2734375 184.75 C-92.40120304 188.53051661 -95.73227008 192.1096525 -99.0546875 195.71875 C-101.44660422 198.38359541 -103.71208009 201.113162 -105.95703125 203.90234375 C-109.17896442 207.89708629 -112.52610736 211.71036484 -116.01953125 215.46484375 C-120.32949563 220.09732755 -124.37014293 224.88606608 -128.33984375 229.81640625 C-130.49710524 232.43759494 -132.73264125 234.95638656 -135.01953125 237.46484375 C-139.72916921 242.63892698 -144.10490207 248.03604301 -148.51953125 253.46484375 C-152.14953125 257.75484375 -155.77953125 262.04484375 -159.51953125 266.46484375 C-115.29953125 266.79484375 -71.07953125 267.12484375 -25.51953125 267.46484375 C-25.7962827 245.40064143 -25.7962827 245.40064143 -26.15014648 223.33764648 C-26.1817627 219.05285645 -26.1817627 219.05285645 -26.18763733 217.04164124 C-26.19832862 215.64845595 -26.22283002 214.25533216 -26.25856018 212.86256409 C-26.54420043 201.13341533 -26.54420043 201.13341533 -24.04202271 197.05886841 C-22.29242371 195.28208847 -20.56205931 193.88659412 -18.51953125 192.46484375 C-17.30180583 191.41312111 -16.09239286 190.35163573 -14.89453125 189.27734375 C-14.22679687 188.70113281 -13.5590625 188.12492188 -12.87109375 187.53125 C-9.95947648 184.9727026 -7.11325934 182.34837416 -4.26953125 179.71484375 C-3.71547607 179.20195801 -3.1614209 178.68907227 -2.59057617 178.16064453 C-1.4601648 177.11390089 -0.32987557 176.06702534 0.80029297 175.02001953 C7.27585673 169.02621815 13.75693628 163.04429318 20.4296875 157.26953125 C22.94051203 155.06000567 25.39444474 152.79217424 27.85546875 150.52734375 C42.17820994 137.46484375 42.17820994 137.46484375 44.48046875 137.46484375 C44.48046875 180.36484375 44.48046875 223.26484375 44.48046875 267.46484375 C60.32046875 267.46484375 76.16046875 267.46484375 92.48046875 267.46484375 C92.48046875 289.24484375 92.48046875 311.02484375 92.48046875 333.46484375 C76.64046875 333.46484375 60.80046875 333.46484375 44.48046875 333.46484375 C44.48046875 349.30484375 44.48046875 365.14484375 44.48046875 381.46484375 C40.37609375 383.73359375 36.27171875 386.00234375 32.04296875 388.33984375 C23.52055475 393.06445224 15.03408391 397.83142624 6.65722656 402.81030273 C0.90080403 406.23005152 -4.89601477 409.5762553 -10.70703125 412.90234375 C-12.03613525 413.66550903 -12.03613525 413.66550903 -13.39208984 414.4440918 C-14.2320752 414.92402588 -15.07206055 415.40395996 -15.9375 415.8984375 C-16.67766357 416.32181396 -17.41782715 416.74519043 -18.18041992 417.18139648 C-20.92350357 418.68649937 -23.71414434 420.07994425 -26.51953125 421.46484375 C-26.54305769 413.53478107 -26.56064588 405.60473379 -26.57134342 397.67464447 C-26.57648652 393.98946368 -26.58342074 390.30430734 -26.5949707 386.61914062 C-26.6061139 383.03994012 -26.61187188 379.46076258 -26.61440849 375.88154602 C-26.6170628 373.90161376 -26.62481952 371.9216903 -26.63282776 369.94177246 C-26.63354816 357.73794938 -26.02926578 345.69847252 -25.51953125 333.46484375 C-88.87953125 333.46484375 -152.23953125 333.46484375 -217.51953125 333.46484375 C-217.78765625 317.10921875 -218.05578125 300.75359375 -218.33203125 283.90234375 C-218.4503833 278.76599365 -218.56873535 273.62964355 -218.69067383 268.33764648 C-218.74938965 261.9942627 -218.74938965 261.9942627 -218.76029968 259.01087952 C-218.78007427 256.95699793 -218.82540703 254.90325359 -218.89201355 252.85035706 C-219.24225421 241.47217033 -219.33028424 232.67076176 -211.33081055 223.94555664 C-209.66690892 222.27295295 -207.96866373 220.66187645 -206.22192955 219.07615852 C-203.32740939 216.33650407 -200.82189785 213.26948327 -198.26953125 210.21484375 C-197.27713885 209.05374884 -196.28379448 207.89346618 -195.2890625 206.734375 C-192.06561372 202.94474928 -188.92320243 199.09094283 -185.78515625 195.23046875 C-178.99487761 186.94164586 -171.98484949 178.83369539 -165.00732422 170.70263672 C-158.2230358 162.7931278 -151.45569324 154.87361297 -144.89453125 146.77734375 C-141.31730946 142.37901589 -137.57355584 138.17185521 -133.7578125 133.98046875 C-130.71074068 130.55583654 -127.84207483 126.99872567 -124.95703125 123.4375 C-120.74830642 118.30474424 -116.40046598 113.29138481 -112.06787109 108.26318359 C-109.5466019 105.33482205 -107.03340882 102.39955026 -104.51953125 99.46484375 C-103.51957148 98.2981426 -102.51957144 97.13147596 -101.51953125 95.96484375 C-101.02453125 95.38734375 -100.52953125 94.80984375 -100.01953125 94.21484375 C-95.51953125 88.96484375 -95.51953125 88.96484375 -94.01879883 87.21411133 C-93.0210793 86.05002398 -92.02352011 84.88579919 -91.02612305 83.72143555 C-88.49254382 80.76414488 -85.95602988 77.80946006 -83.4140625 74.859375 C-78.84242672 69.54840084 -74.29999433 64.22803972 -69.89453125 58.77734375 C-66.08988307 54.08677569 -62.06344233 49.64393599 -57.9765625 45.19921875 C-54.85043572 41.72022233 -51.92375587 38.10161727 -48.984375 34.46484375 C-44.67087594 29.21481637 -40.2482382 24.03301214 -35.66448975 19.01625061 C-33.95714513 16.98538112 -32.50599928 14.99850408 -31.02638245 12.80937195 C-22.19367171 0.40950445 -14.63239992 -0.6222656 0 0 Z " fill="#0258FC" transform="translate(543.51953125,82.53515625)"/>
<path d="M0 0 C0.33 0 0.66 0 1 0 C1 22.77 1 45.54 1 69 C0.34 69 -0.32 69 -1 69 C-1.16820551 67.06263299 -1.33451095 65.12510094 -1.5 63.1875 C-1.5928125 62.10855469 -1.685625 61.02960938 -1.78125 59.91796875 C-2 57 -2 57 -2 54 C-2.00479671 52.65421365 -2.01014639 51.30842922 -2.01586914 49.96264648 C-2.03394871 45.43465858 -2.04545484 40.90667561 -2.05493164 36.37866211 C-2.05994498 34.43041438 -2.06675733 32.48217038 -2.07543945 30.53393555 C-2.08768814 27.70881233 -2.09326814 24.88373885 -2.09765625 22.05859375 C-2.10281754 21.20091904 -2.10797882 20.34324432 -2.11329651 19.45957947 C-2.11468175 4.22936351 -2.11468175 4.22936351 0 0 Z " fill="#0861FA" transform="translate(587,281)"/>
<path d="M0 0 C0 5.13226977 -3.31996098 8.28905012 -6.75 11.875 C-7.86375 12.926875 -7.86375 12.926875 -9 14 C-9.66 13.67 -10.32 13.34 -11 13 C-7.37 8.71 -3.74 4.42 0 0 Z " fill="#DAECFE" transform="translate(475,242)"/>
<path d="M0 0 C0.66 0.99 1.32 1.98 2 3 C-1 6 -4 9 -7 12 C-7.66 11.67 -8.32 11.34 -9 11 C-6.03 7.37 -3.06 3.74 0 0 Z " fill="#1C67F9" transform="translate(403,224)"/>
<path d="M0 0 C-0.33 0.99 -0.66 1.98 -1 3 C-2.78871178 3.38885039 -4.58112874 3.76069196 -6.375 4.125 C-7.37273437 4.33382812 -8.37046875 4.54265625 -9.3984375 4.7578125 C-10.25695312 4.83773437 -11.11546875 4.91765625 -12 5 C-12.66 4.34 -13.32 3.68 -14 3 C-12.23050388 2.49528803 -10.45934777 1.99639315 -8.6875 1.5 C-7.70136719 1.2215625 -6.71523437 0.943125 -5.69921875 0.65625 C-3 0 -3 0 0 0 Z " fill="#272727" transform="translate(84,73)"/>
<path d="M0 0 C0.66 0.33 1.32 0.66 2 1 C0.68 1.33 -0.64 1.66 -2 2 C-2 2.66 -2 3.32 -2 4 C-8.96428571 7.34821429 -8.96428571 7.34821429 -13 6 C-10.87959258 4.96966118 -8.75352092 3.95097146 -6.625 2.9375 C-5.44164063 2.36902344 -4.25828125 1.80054688 -3.0390625 1.21484375 C-2.03617188 0.81394531 -1.03328125 0.41304687 0 0 Z " fill="#373738" transform="translate(123,213)"/>
<path d="M0 0 C0.66 0 1.32 0 2 0 C0.32598022 3.95677402 -2.13149285 6.84464213 -5 10 C-5.66 10 -6.32 10 -7 10 C-5.32598022 6.04322598 -2.86850715 3.15535787 0 0 Z " fill="#1763F9" transform="translate(456,162)"/>
<path d="M0 0 C0.66 0.99 1.32 1.98 2 3 C1.21718695 4.33855056 0.42348123 5.67073644 -0.375 7 C-0.81585937 7.7425 -1.25671875 8.485 -1.7109375 9.25 C-2.13632812 9.8275 -2.56171875 10.405 -3 11 C-3.66 11 -4.32 11 -5 11 C-3.77472971 6.94718288 -2.30119506 3.55639236 0 0 Z " fill="#2A2A2B" transform="translate(28,108)"/>
<path d="M0 0 C0 3.64478912 -0.85802506 5.09303401 -3 8 C-5.109375 8.6484375 -5.109375 8.6484375 -7 9 C-6.02180976 7.68677212 -5.0424189 6.37443848 -4.0625 5.0625 C-3.51722656 4.33160156 -2.97195313 3.60070312 -2.41015625 2.84765625 C-1 1 -1 1 0 0 Z " fill="#226BFC" transform="translate(438,183)"/>
<path d="M0 0 C0.99 0.33 1.98 0.66 3 1 C1.02 2.98 -0.96 4.96 -3 7 C-3.66 6.67 -4.32 6.34 -5 6 C-3.63016497 2.83884224 -3.0109362 2.0072908 0 0 Z " fill="#136AFA" transform="translate(551,151)"/>
<path d="M0 0 C0.66 0.66 1.32 1.32 2 2 C0.35 3.98 -1.3 5.96 -3 8 C-3.99 7.67 -4.98 7.34 -6 7 C-4.02 4.69 -2.04 2.38 0 0 Z " fill="#1C69FC" transform="translate(480,134)"/>
<path d="M0 0 C-1.44253657 3.36591866 -3.33264727 5.51047079 -6 8 C-6 4.87099787 -5.57548683 3.62581138 -4 1 C-2 0 -2 0 0 0 Z " fill="#166DFD" transform="translate(610,85)"/>
<path d="M0 0 C0 4.38968456 -2.12805101 5.76905739 -5 9 C-5.66 8.67 -6.32 8.34 -7 8 C-4.69 5.36 -2.38 2.72 0 0 Z " fill="#C9E2FE" transform="translate(407,321)"/>
<path d="M0 0 C0 3.57575896 -1.08840607 5.05295935 -3 8 C-3.99 7.67 -4.98 7.34 -6 7 C-4.02 4.69 -2.04 2.38 0 0 Z " fill="#1E6AFB" transform="translate(393,236)"/>
<path d="M0 0 C-1.39332574 3.36720387 -2.9789286 4.9859524 -6 7 C-6 4 -6 4 -4.125 1.8125 C-2 0 -2 0 0 0 Z " fill="#1865F9" transform="translate(570,236)"/>
<path d="M0 0 C0.33 0.99 0.66 1.98 1 3 C-0.98 4.32 -2.96 5.64 -5 7 C-5.66 6.67 -6.32 6.34 -7 6 C-4.69 4.02 -2.38 2.04 0 0 Z " fill="#1C68FB" transform="translate(581,225)"/>
</svg>
